<svg width="43" height="44" viewBox="0 0 43 44" fill="none" xmlns="http://www.w3.org/2000/svg">
<g filter="url(#filter0_d_302_524)">
<path d="M10.9167 4C11.9167 3 11.1667 0 9.47869 0C7.79069 0 7.91669 2 8.91669 2C9.91669 2 9.91669 4 9.91669 5C9.91669 6 10.9167 4 10.9167 4ZM6.73369 5.72C7.73369 4.72 6.98369 1.72 5.29569 1.72C3.60769 1.72 3.73369 3.72 4.73369 3.72C5.73369 3.72 5.73369 5.72 5.73369 6.72C5.73369 7.72 6.73369 5.72 6.73369 5.72Z" fill="#AA8DD8"/>
<path d="M33.1087 32.856C33.2977 33.664 34.3357 35.136 35.1407 34.947C35.9467 34.757 36.2177 32.976 36.0287 32.17C35.8397 31.362 35.0307 30.863 34.2247 31.053C33.4197 31.243 32.9187 32.05 33.1087 32.856ZM27.6747 33.505C27.6777 34.335 28.3557 36.003 29.1837 36C30.0117 35.996 30.6777 34.323 30.6747 33.494C30.6717 32.665 29.9977 31.997 29.1697 31.999C28.3417 32.003 27.6717 32.676 27.6747 33.505ZM22.4037 31.059C22.0777 31.823 22.0387 33.622 22.7997 33.949C23.5627 34.273 24.8367 33.002 25.1627 32.239C25.4877 31.477 25.1347 30.596 24.3737 30.269C23.6117 29.944 22.7307 30.296 22.4037 31.059ZM17.3727 20.019C16.5607 20.191 15.0647 21.192 15.2337 22.002C15.4067 22.812 17.1787 23.126 17.9907 22.955C18.8017 22.784 19.3197 21.988 19.1507 21.178C18.9787 20.368 18.1857 19.848 17.3727 20.019ZM15.3357 15.019C14.5237 15.191 13.0277 16.192 13.1967 17.002C13.3697 17.812 15.1417 18.126 15.9537 17.955C16.7647 17.784 17.2827 16.988 17.1137 16.178C16.9417 15.368 16.1477 14.848 15.3357 15.019Z" fill="#744EAA"/>
<path d="M30.7457 34C33.5767 34 35.6717 33.123 36.0117 32.973C38.2827 31.963 39.3047 29.304 38.2957 27.034C37.2967 24.784 34.6797 23.759 32.4237 24.72C32.2907 24.77 30.6307 25.369 29.0807 24.648C27.2297 23.787 26.0857 21.339 25.4527 19.439C25.3087 19.009 25.0677 18.165 24.7667 17.123C22.9007 10.652 21.9347 8.83799 20.7837 7.30299C17.0727 2.35199 11.1917 2.00699 8.30068 2.58699C5.86368 3.07399 4.28268 5.44499 4.77068 7.88199C5.25868 10.32 7.63068 11.902 10.0667 11.412C10.2287 11.386 12.2707 11.106 13.4907 12.581C14.1337 13.868 15.5707 17.709 16.1207 19.615C16.4667 20.814 16.7497 21.786 16.9147 22.282C18.6877 27.599 21.5807 31.175 25.5177 32.911C27.3697 33.729 29.1717 34 30.7457 34Z" fill="#9266CC"/>
<path d="M10.1837 6C10.736 6 11.1837 5.55228 11.1837 5C11.1837 4.44772 10.736 4 10.1837 4C9.63143 4 9.18372 4.44772 9.18372 5C9.18372 5.55228 9.63143 6 10.1837 6Z" fill="#202024"/>
<path d="M34.4247 32.964C34.3357 32.964 34.2447 32.952 34.1557 32.928C33.6237 32.78 33.3117 32.229 33.4597 31.697C34.2167 28.975 32.6897 27.155 32.6747 27.137C32.3157 26.718 32.3627 26.086 32.7817 25.727C33.1997 25.368 33.8327 25.415 34.1917 25.834C34.2837 25.941 36.4257 28.494 35.3867 32.231C35.2647 32.674 34.8617 32.964 34.4247 32.964ZM27.2257 32.401C26.9807 32.401 26.7357 32.312 26.5417 32.131C26.1387 31.753 26.1177 31.12 26.4947 30.717C27.9797 29.13 27.9477 26.524 27.9467 26.497C27.9307 25.945 28.3657 25.485 28.9187 25.469C29.4607 25.464 29.9317 25.888 29.9467 26.441C29.9507 26.58 30.0197 29.878 27.9557 32.085C27.7587 32.295 27.4917 32.401 27.2257 32.401ZM18.6837 23.705C18.2037 23.705 17.7797 23.358 17.6987 22.868C17.6087 22.324 17.9767 21.808 18.5217 21.719C21.5957 21.209 23.2957 19.342 23.3127 19.323C23.6777 18.913 24.3107 18.874 24.7217 19.239C25.1337 19.604 25.1747 20.232 24.8127 20.645C24.7257 20.744 22.6567 23.06 18.8487 23.691C18.7927 23.701 18.7377 23.705 18.6837 23.705ZM21.6047 28.562C21.1797 28.562 20.7857 28.29 20.6507 27.864C20.4847 27.338 20.7767 26.775 21.3027 26.609C23.9957 25.756 25.1827 23.779 25.1947 23.759C25.4747 23.282 26.0867 23.122 26.5627 23.402C27.0397 23.681 27.1987 24.295 26.9197 24.77C26.8567 24.878 25.3247 27.433 21.9067 28.514C21.8057 28.547 21.7037 28.562 21.6047 28.562ZM16.9857 17.892C16.4897 17.892 16.0587 17.523 15.9947 17.017C15.9257 16.469 16.3137 15.969 16.8617 15.899C19.5507 15.559 21.5187 13.928 21.5377 13.911C21.9597 13.557 22.5907 13.608 22.9457 14.03C23.3017 14.451 23.2507 15.08 22.8307 15.437C22.7337 15.52 20.4107 17.466 17.1127 17.883C17.0697 17.889 17.0277 17.892 16.9857 17.892ZM15.1647 13.125C14.7397 13.125 14.3457 12.852 14.2107 12.424C14.0457 11.897 14.3377 11.336 14.8647 11.17C17.9947 10.187 19.1177 8.47797 19.1637 8.40597C19.4587 7.94397 20.0747 7.80097 20.5387 8.09397C21.0037 8.38597 21.1497 8.99297 20.8627 9.45997C20.8027 9.55697 19.3567 11.856 15.4637 13.079C15.3647 13.11 15.2637 13.125 15.1647 13.125Z" fill="#744EAA"/>
</g>
<defs>
<filter id="filter0_d_302_524" x="0" y="0" width="42.6846" height="44" filterUnits="userSpaceOnUse" color-interpolation-filters="sRGB">
<feFlood flood-opacity="0" result="BackgroundImageFix"/>
<feColorMatrix in="SourceAlpha" type="matrix" values="0 0 0 0 0 0 0 0 0 0 0 0 0 0 0 0 0 0 127 0" result="hardAlpha"/>
<feOffset dy="4"/>
<feGaussianBlur stdDeviation="2"/>
<feComposite in2="hardAlpha" operator="out"/>
<feColorMatrix type="matrix" values="0 0 0 0 0 0 0 0 0 0 0 0 0 0 0 0 0 0 0.25 0"/>
<feBlend mode="normal" in2="BackgroundImageFix" result="effect1_dropShadow_302_524"/>
<feBlend mode="normal" in="SourceGraphic" in2="effect1_dropShadow_302_524" result="shape"/>
</filter>
</defs>
</svg>
